<?xml version="1.0" encoding="UTF-8" standalone="no"?>
<svg width="456" height="456" viewBox="0 0 456 456" version="1.1" xmlns="http://www.w3.org/2000/svg">
  <circle cx="228" cy="234" r="104" fill="none" stroke="#FFFFFF" stroke-width="18"/>
  <path d="M128 234H328" fill="none" stroke="#FFFFFF" stroke-width="12" stroke-linecap="round" opacity="0.95"/>
  <path d="M228 130C196 160 180 197 180 234C180 271 196 308 228 338" fill="none" stroke="#FFFFFF" stroke-width="12" stroke-linecap="round" opacity="0.95"/>
  <path d="M228 130C260 160 276 197 276 234C276 271 260 308 228 338" fill="none" stroke="#FFFFFF" stroke-width="12" stroke-linecap="round" opacity="0.95"/>
  <path d="M148 176C174 192 200 200 228 200C256 200 282 192 308 176" fill="none" stroke="#A1D078" stroke-width="12" stroke-linecap="round"/>
  <path d="M148 292C174 276 200 268 228 268C256 268 282 276 308 292" fill="none" stroke="#A1D078" stroke-width="12" stroke-linecap="round"/>
  <path d="M268 124L322 140L284 182L364 222L304 236L284 294L240 248L196 242L236 212L232 174L268 124Z" fill="#FFFFFF"/>
  <path d="M299 148L284 182L364 222L304 236" fill="none" stroke="#A1D078" stroke-width="10" stroke-linecap="round" stroke-linejoin="round"/>
</svg>
