<?xml version="1.0" encoding="UTF-8" standalone="no"?>
<svg width="456" height="456" viewBox="0 0 456 456" version="1.1" xmlns="http://www.w3.org/2000/svg">
  <circle cx="228" cy="228" r="126" fill="none" stroke="#FFFFFF" stroke-width="20"/>
  <path d="M108 228H348" fill="none" stroke="#FFFFFF" stroke-width="14" stroke-linecap="round"/>
  <path d="M228 102C190 138 170 181 170 228C170 275 190 318 228 354" fill="none" stroke="#FFFFFF" stroke-width="14" stroke-linecap="round"/>
  <path d="M228 102C266 138 286 181 286 228C286 275 266 318 228 354" fill="none" stroke="#FFFFFF" stroke-width="14" stroke-linecap="round"/>
  <path d="M152 166C178 182 203 190 228 190C253 190 278 182 304 166" fill="none" stroke="#A1D078" stroke-width="12" stroke-linecap="round"/>
  <path d="M152 290C178 274 203 266 228 266C253 266 278 274 304 290" fill="none" stroke="#A1D078" stroke-width="12" stroke-linecap="round"/>
  <path d="M266 118L320 136L284 176L360 214L304 228L286 286L242 242L202 238L238 210L234 172L266 118Z" fill="#FFFFFF"/>
</svg>
